<?xml version="1.0" encoding="UTF-8"?>
<!DOCTYPE svg PUBLIC "-//W3C//DTD SVG 1.1//EN" "http://www.w3.org/Graphics/SVG/1.1/DTD/svg11.dtd">
<!-- Creator: CorelDRAW 2021 (64-Bit) -->
<svg xmlns="http://www.w3.org/2000/svg" xml:space="preserve" width="720mm" height="430mm" version="1.1" style="shape-rendering:geometricPrecision; text-rendering:geometricPrecision; image-rendering:optimizeQuality; fill-rule:evenodd; clip-rule:evenodd"
viewBox="0 0 72000 43000"
 xmlns:xlink="http://www.w3.org/1999/xlink"
 xmlns:xodm="http://www.corel.com/coreldraw/odm/2003">
 <defs>
  <style type="text/css">
   <![CDATA[
    .fil1 {fill:#4B73FE}
    .fil2 {fill:#4C73FD}
    .fil0 {fill:#F8A601}
   ]]>
  </style>
 </defs>
 <g id="Layer_x0020_1">
  <metadata id="CorelCorpID_0Corel-Layer"/>
  <path class="fil0" d="M24460.24 13648.61l5372.26 -1594.14 0 -2037.27c244.78,0 489.57,-0.07 734.35,0 256.97,0.06 464.06,-19.33 734.33,-19.33 495.89,0 992.46,2.58 1488.28,-0.25 300.08,-1.71 1072.47,66.12 1377.71,110.24 273.17,39.47 674.33,111.84 937.02,183.73l293.84 92.52c103.12,4.86 842.13,356.12 1045.23,443.02 24.02,10.29 49.41,19.83 78.75,36.03 28.16,15.54 19.44,11.57 37.17,23.57 2.72,1.84 9.9,13 11.84,9.35 1.96,-3.67 8.03,6.18 11.68,9.7l259.84 275.26c49.42,49.4 84.58,87.2 134.89,135.61l709.82 623.41c2.12,1.8 6.98,5.93 10.43,8.94 70.25,44.72 124.2,171.89 174.97,249.78 41.18,63.17 137.76,199.36 156.53,271.66l344.85 869.26c37.81,94.34 90.42,205.2 115.95,305.74 51.11,96.67 96.08,428.22 96.76,563.51 31.07,49.31 71.5,543.6 76.16,599.84 55.64,673.16 -119.83,1783.37 -329.89,2411.22 -101.98,304.85 -260.07,681.67 -430.59,941.1 -568.82,865.42 -1341.98,1417.98 -2308.34,1807.07 -151.86,61.15 -345.56,127.22 -517.61,178.03 -389.64,115.01 -788.33,192.49 -1108.47,285.05 -264.48,151.2 -743.78,732.43 -948.86,981.21 -152.5,184.99 -283.89,350.17 -428.38,537.16 -389.3,503.8 -1996.49,2316.19 -2142.75,2729.06 4.51,2.62 12,-0.32 14.64,5.56l708.64 85.65c253,32.24 537.62,25.81 772.89,58.04 129.27,17.71 266,-7.14 395.27,10.57 530.11,72.62 2148.8,-33.13 2733.51,-117.75 1068.84,-154.69 2258.26,-419.46 3242.6,-853.88l1359.46 -688.68c339.1,-201.66 916.3,-603.43 1216.21,-870.51l840.65 -801.63c420.94,-415.99 902.04,-1150.34 1206.53,-1652.84l344.35 -679.58c22.18,-49.67 44.65,-85.26 68.9,-143.62 43.83,-105.43 76.16,-181.2 118.68,-287.04 332.1,-826.88 594.09,-1932.05 643.23,-2853.37 56.72,-1063.67 -41.48,-2171.68 -320.46,-3156.89 -154.73,-546.44 -308.62,-1020.79 -536.27,-1511.52l-405.97 -789c-220.83,-428.19 -622.79,-979.41 -923.58,-1359.03l-185.88 -219.84c-43.73,-47.05 -50.56,-68.77 -96.28,-116.27l-203.01 -222.04c-71.89,-78.37 -137.18,-115.56 -212.91,-192.83 -37.46,-38.22 -55.89,-59.3 -99.9,-93.31l-1075.1 -779.76c-1393.96,-833.64 -2628.08,-1205.76 -4248.68,-1528.77 -536.57,-106.96 -1106.76,-164.66 -1644.31,-191.47 -85.81,-4.26 -92.63,-18.89 -192.45,-20.12l-2899.48 0.78c-2196.58,0 -4393.15,0 -6589.73,0 0,2659.37 -19.32,5270.96 -19.32,7939.07z"/>
  <path class="fil1" d="M38029.18 12470.44c-18.77,-72.3 -115.35,-208.49 -156.53,-271.66 -50.77,-77.89 -104.72,-205.06 -174.97,-249.78l-438.14 180.08c-872.02,404.22 -1680.61,830.45 -2531.43,1255.7 -76.07,38.01 -129.91,65.16 -206.21,102.94l-624.79 321.99c-80.45,39.88 -129.04,73.12 -199.41,109.74l-1043.63 540.77c-70.06,34.72 -130.66,65.34 -206.32,102.85l-2061.16 1088.3c-78.94,42.48 -140.29,66.78 -219.21,109.29l-401 217.29c-70.61,42.28 -136.55,69.04 -204.67,104.49l-1861.65 998.01c-609.48,308.71 -1405.44,778.38 -2035.27,1114.2 -142.66,76.06 -265.73,152.81 -406.27,231.34l-798.28 476.95 0 3766.81c81.34,-43.03 158.63,-75.98 244.87,-122.25 82.76,-44.42 149.35,-88.68 226.7,-140.45 157.79,-105.61 278.09,-193.61 425.52,-308.66 334.81,-261.31 704.62,-572.35 1046.94,-807.91 1051.32,-723.52 2167.26,-1634.23 3190.79,-2393.06 144.54,-107.14 271.82,-214.28 414.05,-320.19l2084.19 -1625.49c139.76,-106.77 268.65,-210.08 414.48,-319.73l1258.51 -982.76c288.77,-217.11 557.58,-433.1 839.21,-648.52l1471.69 -1117.37c362.44,-271.8 1628.52,-1216.16 1951.99,-1412.92z"/>
  <path class="fil2" d="M30448.01 24678.69c146.26,-412.87 1753.45,-2225.26 2142.75,-2729.06 144.49,-186.99 275.88,-352.17 428.38,-537.16 205.08,-248.78 684.38,-830.01 948.86,-981.21 51.58,-233.76 788.9,-1127.09 991.54,-1367.79l790.98 -909.23c34.38,-38.69 33.61,-47.87 68.01,-86.56l395.43 -454.66c56.36,-64.59 101.42,-123.23 156.4,-191.37l1061.27 -1295.81c184.58,-207.1 436.2,-515.74 638.14,-714.3 293.34,-288.41 515.56,-695.68 516.97,-1202.59 -0.68,-135.29 -45.65,-466.84 -96.76,-563.51 -67.26,23.64 -53.5,29.87 -101.75,75.59 -44.36,42.02 -61.15,45.49 -105.96,87.13l-890.95 770.65c-47.41,38.17 -58.36,46.15 -104.34,88.89l-301.5 258.81c-47.39,38.17 -58.34,46.16 -104.33,88.89 -41.98,39.01 -55.24,41.09 -96.26,77.62l-1295.95 1119.17c-46.1,38.76 -59.41,44.04 -105.4,87.82 -45.08,42.94 -62.42,48.46 -105.98,87.24 -267.3,238.03 -526.91,454.32 -801.33,686.37l-3401.22 2916.78c-36.75,30.89 -51.99,54.28 -88.73,85.17l-1709.31 1459.35c-43.03,39.97 -44.26,42.39 -93.33,80.56l-206.3 180.13c-44.67,41.52 -62.24,45.51 -106.38,86.81 -303.38,283.8 -701.82,587.15 -995.11,859.72l-994.03 860.79c-358.95,301.55 -457.33,381.04 -793.65,713.41 -38.86,38.4 -50.97,51.47 -81.95,91.9 -34.54,45.1 -53.48,58.45 -90.85,102.37 -42.32,49.71 -145.31,169.63 -160.37,226.03 807.82,0 1562.61,-19.33 2357.6,-19.33l2048.55 -19.18c124.64,0.63 190.6,-19.44 286.86,-19.44z"/>
  <path class="fil2" d="M29832.5 12054.47l-5372.26 1594.14 0 2318.18c0,268.79 19.32,476.43 19.32,753.36l3078.98 -1384.47c71.09,-32.92 122.97,-51.22 186.97,-83.55l5874.71 -2820.25c311.45,-157.17 2663.33,-1313.08 2962.48,-1526.1 -3.65,-3.52 -9.72,-13.37 -11.68,-9.7 -1.94,3.65 -9.12,-7.51 -11.84,-9.35 -17.73,-12 -9.01,-8.03 -37.17,-23.57 -29.34,-16.2 -54.73,-25.74 -78.75,-36.03 -203.1,-86.9 -942.11,-438.16 -1045.23,-443.02l-610.17 278.78c-841.38,322.76 -2646.38,807.65 -3502.17,1019.38l-1453.19 372.2z"/>
 </g>
</svg>
