<svg xmlns="http://www.w3.org/2000/svg" width="16" height="16" fill="none" aria-hidden="true" focusable="false"><path fill="#000" d="M4.666 14.667c-.367 0-.68-.131-.942-.392a1.284 1.284 0 0 1-.391-.942c0-.366.13-.68.391-.941.261-.261.575-.392.942-.392s.68.13.942.392c.26.26.391.575.391.941 0 .367-.13.68-.391.942a1.284 1.284 0 0 1-.942.392m6.667 0c-.367 0-.68-.131-.942-.392a1.284 1.284 0 0 1-.392-.942c0-.366.13-.68.392-.941.261-.261.575-.392.942-.392.366 0 .68.13.941.392.262.26.392.575.392.941 0 .367-.13.68-.392.942a1.284 1.284 0 0 1-.941.392M4.099 4l1.6 3.333h4.667L12.199 4zm-.633-1.333h9.833c.256 0 .45.113.584.341a.672.672 0 0 1 .016.692l-2.366 4.267a1.335 1.335 0 0 1-.492.516c-.206.122-.43.184-.675.184H5.399L4.666 10h8v1.333h-8c-.5 0-.878-.22-1.133-.658-.256-.439-.267-.875-.034-1.308l.9-1.634L2 2.667H.666V1.333h2.167z"/></svg>