<svg xmlns="http://www.w3.org/2000/svg" width="16" height="16" viewBox="0 0 16 16" aria-hidden="true" focusable="false" fill="#000"><path d="M4 14.667a1.929 1.929 0 0 1-1.417-.583A1.929 1.929 0 0 1 2 12.667v-2h2V1.334l1 1 1-1 1 1 1-1 1 1 1-1 1 1 1-1 1 1 1-1v11.333a1.93 1.93 0 0 1-.583 1.417 1.929 1.929 0 0 1-1.417.583zm8-1.333a.645.645 0 0 0 .475-.192.645.645 0 0 0 .192-.475V3.334H5.333v7.333h6v2c0 .189.064.347.192.475a.645.645 0 0 0 .475.192M6 6V4.667h4V6zm0 2V6.667h4V8zm5.333-2a.645.645 0 0 1-.475-.191.645.645 0 0 1-.191-.476c0-.188.064-.347.191-.474a.645.645 0 0 1 .475-.192c.19 0 .348.064.475.192a.645.645 0 0 1 .192.474.645.645 0 0 1-.192.476.645.645 0 0 1-.475.191m0 2a.645.645 0 0 1-.475-.191.645.645 0 0 1-.191-.476c0-.188.064-.347.191-.474a.645.645 0 0 1 .475-.192c.19 0 .348.064.475.192a.645.645 0 0 1 .192.474.645.645 0 0 1-.192.476.645.645 0 0 1-.475.191M4 13.334h6V12H3.333v.667c0 .189.064.347.192.475a.645.645 0 0 0 .475.192"/></svg>
