<svg fill="#000" viewBox="0 0 16 16" width="16" height="16" xmlns="http://www.w3.org/2000/svg" aria-hidden="true" focusable="false"><g><path fill="none" d="M0 0h16v16H0z"/><path d="M3.093 14.5c-.445 0-.822-.157-1.13-.471a1.579 1.579 0 0 1-.463-1.15V5.978c0-.453.154-.837.463-1.15a1.523 1.523 0 0 1 1.13-.472H5.17V3.121c0-.453.154-.836.463-1.15a1.524 1.524 0 0 1 1.13-.471H9.22c.445 0 .822.157 1.13.471.309.314.463.697.463 1.15v1.235h2.078c.445 0 .824.157 1.138.471.313.314.47.698.47 1.15v6.902c0 .453-.157.836-.47 1.15a1.548 1.548 0 0 1-1.138.471h-9.8Zm0-1.621h9.799V5.978h-9.8v6.9Zm3.67-8.523h2.458V3.121H6.764v1.235Zm-3.67 8.523V5.978v6.9Z" /></g></svg>
