<svg xmlns="http://www.w3.org/2000/svg" width="16" height="16" viewBox="0 0 16 16" fill="#000" aria-hidden="true" focusable="false"><path d="M6.667 8a2.568 2.568 0 0 1-1.883-.784 2.568 2.568 0 0 1-.783-1.883c0-.733.26-1.36.783-1.883a2.568 2.568 0 0 1 1.883-.784c.734 0 1.361.262 1.884.784.522.522.783 1.15.783 1.883 0 .733-.261 1.361-.783 1.883A2.568 2.568 0 0 1 6.667 8Zm-5.333 5.333v-1.867c0-.366.094-.71.283-1.033.19-.322.45-.566.784-.733a10.437 10.437 0 0 1 1.916-.733c.711-.2 1.495-.3 2.35-.3h.234c.066 0 .133.01.2.033-.09.2-.164.408-.225.625a5.186 5.186 0 0 0-.142.675h-.067c-.789 0-1.497.1-2.125.3-.627.2-1.141.4-1.541.6a.65.65 0 0 0-.334.566V12h4.2c.067.233.156.464.267.691.111.228.233.442.367.642H1.334Zm9.333.667-.2-1a4.72 4.72 0 0 1-.375-.175 2.9 2.9 0 0 1-.358-.225l-.967.3-.666-1.133.766-.667a3.077 3.077 0 0 1-.033-.434c0-.133.011-.277.033-.433l-.766-.667.666-1.133.967.3c.122-.089.242-.164.358-.225.117-.06.242-.12.375-.175l.2-1h1.334l.2 1c.133.056.258.117.375.184a2.6 2.6 0 0 1 .358.25l.967-.334.666 1.167-.766.667a2.534 2.534 0 0 1 0 .833l.766.667-.666 1.133-.967-.3a2.902 2.902 0 0 1-.358.225A4.72 4.72 0 0 1 12.2 13l-.2 1h-1.334Zm.667-2c.367 0 .68-.13.942-.392.26-.26.391-.575.391-.942 0-.366-.13-.68-.391-.941a1.284 1.284 0 0 0-.942-.392c-.367 0-.68.13-.942.392a1.284 1.284 0 0 0-.391.941c0 .367.13.681.391.942.261.261.575.392.942.392ZM6.667 6.667c.367 0 .68-.131.942-.392.261-.261.392-.575.392-.942s-.13-.68-.392-.942A1.284 1.284 0 0 0 6.667 4c-.366 0-.68.13-.941.391a1.284 1.284 0 0 0-.392.942c0 .367.13.68.392.942.26.26.575.391.941.391Z"/></svg>