<svg aria-hidden="true" focusable="false" fill="#000" width="24" height="24" viewBox="0 0 24 24" xmlns="http://www.w3.org/2000/svg"><path fill="none" d="M0 0h24v24H0z"/><path d="M20.958 11.05V19c0 .55-.195 1.021-.584 1.413-.39.391-.86.587-1.407.587H5.033a1.912 1.912 0 0 1-1.406-.587A1.931 1.931 0 0 1 3.042 19v-7.95c-.382-.35-.676-.8-.883-1.35-.208-.55-.212-1.15-.013-1.8l1.045-3.4c.133-.433.37-.792.71-1.075A1.79 1.79 0 0 1 5.082 3h13.835c.448 0 .838.137 1.17.412.332.275.572.638.722 1.088l1.045 3.4c.199.65.195 1.242-.012 1.775a3.96 3.96 0 0 1-.884 1.375ZM14.19 10c.447 0 .788-.154 1.02-.463.232-.308.323-.654.274-1.037L14.936 5h-1.94v3.7c0 .35.115.654.348.913.232.258.514.387.846.387Zm-4.48 0c.382 0 .693-.129.934-.387a1.3 1.3 0 0 0 .36-.913V5h-1.94l-.548 3.5c-.066.4.021.75.262 1.05.24.3.551.45.933.45Zm-4.429 0c.299 0 .56-.108.784-.325.224-.217.361-.492.41-.825L7.024 5h-1.94l-.996 3.35c-.1.333-.046.692.161 1.075.208.383.552.575 1.033.575Zm13.437 0c.481 0 .83-.192 1.045-.575.216-.383.266-.742.15-1.075L18.868 5h-1.891l.547 3.85c.05.333.187.608.411.825.224.217.485.325.783.325ZM5.033 19h13.934v-7.05a.6.6 0 0 1-.161.05h-.088c-.448 0-.842-.075-1.182-.225-.34-.15-.676-.392-1.007-.725-.299.3-.639.533-1.02.7-.382.167-.789.25-1.22.25-.448 0-.867-.083-1.257-.25-.39-.167-.734-.4-1.032-.7-.282.3-.61.533-.983.7A2.93 2.93 0 0 1 9.81 12c-.48 0-.917-.083-1.307-.25-.39-.167-.733-.4-1.032-.7-.348.35-.692.596-1.032.737A2.98 2.98 0 0 1 5.281 12H5.17a.252.252 0 0 1-.137-.05V19Zm13.934 0H5.033h13.934Z" /></svg>
