<svg aria-hidden="true" focusable="false" fill="#000" width="24" height="24" viewBox="0 0 24 24" xmlns="http://www.w3.org/2000/svg"><path fill="none" d="M0 0h24v24H0z"/><path d="M6 22c-.55 0-1.02-.196-1.412-.587A1.927 1.927 0 0 1 4 20V8c0-.55.196-1.02.588-1.412A1.923 1.923 0 0 1 6 6h2c0-1.1.392-2.042 1.175-2.825C9.958 2.392 10.9 2 12 2s2.042.392 2.825 1.175C15.608 3.958 16 4.9 16 6h2c.55 0 1.021.196 1.413.588.391.391.587.862.587 1.412v12a1.93 1.93 0 0 1-.587 1.413A1.928 1.928 0 0 1 18 22H6Zm4-16h4c0-.55-.196-1.02-.587-1.412A1.927 1.927 0 0 0 12 4c-.55 0-1.02.196-1.412.588A1.923 1.923 0 0 0 10 6ZM6 20h12V8h-2v2a.97.97 0 0 1-.287.712A.968.968 0 0 1 15 11a.965.965 0 0 1-.712-.288A.965.965 0 0 1 14 10V8h-4v2a.97.97 0 0 1-.287.712A.968.968 0 0 1 9 11a.965.965 0 0 1-.712-.288A.965.965 0 0 1 8 10V8H6v12Zm0 0V8v12Z" /></svg>
