<svg xmlns="http://www.w3.org/2000/svg" width="16" height="16" viewBox="0 0 16 16" fill="#000" aria-hidden="true" focusable="false"><path d="M3.333 14c-.366 0-.68-.13-.941-.392A1.284 1.284 0 0 1 2 12.667V3.333c0-.366.13-.68.392-.941.26-.261.575-.392.941-.392h9.334c.366 0 .68.13.941.392.261.26.392.575.392.941V5h-1.333V3.333H3.333v9.334h9.334V11H14v1.667c0 .366-.13.68-.392.941a1.284 1.284 0 0 1-.941.392zm5.334-2.667c-.367 0-.68-.13-.942-.391A1.284 1.284 0 0 1 7.333 10V6c0-.367.13-.68.392-.942.261-.26.575-.391.942-.391h4.666c.367 0 .68.13.942.391.261.261.392.575.392.942v4c0 .367-.13.68-.392.942a1.284 1.284 0 0 1-.942.391zM13.333 10V6H8.667v4zm-2.666-1a.964.964 0 0 0 .708-.292.965.965 0 0 0 .292-.708.965.965 0 0 0-.292-.708.964.964 0 0 0-.708-.292.964.964 0 0 0-.709.292.964.964 0 0 0-.291.708c0 .278.097.514.291.708.195.195.43.292.709.292"/></svg>
